# xmcd CD database file
#
# Track frame offsets:
#	150
#	28875
#	45952
#	66065
#	81302
#	108636
#	132029
#	152312
#	173095
#	189426
#	205143
#	220541
#	237194
#	257622
#	271269
#	291216
#
# Disc length: 4174 seconds
#
# Revision: 1
# Processed by: cddbd v1.5.1PL0 Copyright (c) Steve Scherf et al.
# Submitted via: CDex 1.51
#
DISCID=d5104c10
DTITLE=Various Artist - Raise the Roof
DYEAR=2004
DGENRE=Jazz
TTITLE0=Rock the House
TTITLE1=Peephole
TTITLE2=i disagree - Fighting Gravity
TTITLE3=Yesterday's Fools - John McCutcheon
TTITLE4=some must dream - Nils Lofgren
TTITLE5=Para Donde Vas - The Iguanas
TTITLE6=Don't Let Go - The Grandsons
TTITLE7=Lefty's Boys - Speidel, Goodrich, Goggin and Lille
TTITLE8=Did You Hear John Hurt - Tom Paxton
TTITLE9=Duaghters of Feminists - Cathy Fink and Marcy Marxer
TTITLE10=Winsome Smile - Chris Smither
TTITLE11=First of September - Cravin' Dogs
TTITLE12=Two Bones and a Pick - Roomful of Blues
TTITLE13=Perky Dance Two-step - Beausoleil
TTITLE14=Some Cold and Rainy Day - Saffire
TTITLE15=Great Day - Eddie From Ohio
EXTD=YEAR: 2004
EXTT0=
EXTT1=
EXTT2=
EXTT3=
EXTT4=
EXTT5=
EXTT6=
EXTT7=
EXTT8=
EXTT9=
EXTT10=
EXTT11=
EXTT12=
EXTT13=
EXTT14=
EXTT15=
PLAYORDER=
